<?xml version="1.0" standalone="no"?>
<!DOCTYPE svg PUBLIC "-//W3C//DTD SVG 20010904//EN"
 "http://www.w3.org/TR/2001/REC-SVG-20010904/DTD/svg10.dtd">
<svg version="1.0" xmlns="http://www.w3.org/2000/svg"
 width="360.000000pt" height="360.000000pt" viewBox="0 0 360.000000 360.000000"
 preserveAspectRatio="xMidYMid meet">

<g transform="translate(0.000000,360.000000) scale(0.100000,-0.100000)"
fill="#000000" stroke="none">
<path d="M2830 2799 c-155 -13 -204 -25 -271 -64 -69 -40 -79 -43 -54 -15 28
31 11 35 -71 16 -51 -12 -89 -29 -120 -52 -40 -31 -61 -35 -32 -6 28 28 -11
24 -120 -13 -115 -39 -118 -41 -193 -116 l-76 -76 24 54 c26 55 24 76 -5 66
-60 -20 -152 -68 -157 -82 -3 -9 -14 -27 -25 -41 l-20 -25 10 29 c6 16 9 31 6
33 -2 3 -61 -32 -129 -78 l-126 -82 -42 -88 c-23 -49 -44 -87 -46 -86 -1 2 8
32 22 67 14 36 24 68 23 72 -4 9 -207 -123 -247 -161 -32 -30 -50 -83 -52
-146 0 -32 -2 -36 -9 -20 -5 11 -9 34 -9 50 -1 17 -6 37 -11 45 -14 23 -64 -8
-148 -93 l-71 -72 -3 -81 c-2 -45 -6 -80 -9 -78 -4 2 -10 29 -14 59 -3 30 -10
55 -15 55 -12 0 -31 -93 -37 -189 -3 -46 0 -134 6 -195 l13 -111 -49 -80 c-26
-44 -54 -86 -61 -93 -6 -7 -12 -18 -12 -23 0 -5 -9 -9 -20 -9 -11 0 -20 -3
-21 -7 0 -5 -2 -18 -3 -29 -1 -12 -27 -51 -58 -87 -53 -62 -55 -68 -51 -109 3
-27 -1 -58 -10 -81 -9 -20 -12 -37 -8 -37 12 0 95 139 101 169 6 29 28 39 36
16 4 -10 -1 -21 -13 -30 -19 -13 -93 -125 -93 -141 0 -4 10 2 22 14 13 11 44
29 69 40 43 19 48 25 79 100 21 52 40 82 51 85 12 3 18 13 17 29 -2 30 21 78
74 158 49 74 53 75 203 87 l100 8 -60 22 -60 22 95 -6 c138 -8 170 8 305 150
58 61 103 112 101 115 -3 2 -53 -1 -111 -8 -105 -12 -160 -9 -68 4 26 4 86 14
133 23 81 16 88 19 142 71 32 30 55 59 52 63 -3 5 -47 10 -97 10 l-92 2 114 9
114 9 69 59 c38 33 68 63 67 67 -1 4 -13 13 -28 20 -24 10 -21 11 31 12 55 1
59 3 137 68 45 37 81 70 81 74 0 8 -35 16 -100 22 -19 2 2 5 48 5 46 1 93 7
105 13 12 6 82 50 156 98 l133 86 -48 6 -49 6 50 1 c82 3 124 20 243 100 62
41 111 77 109 78 -2 2 -37 0 -78 -6 -119 -15 -123 -9 -6 10 109 18 167 44 244
107 l28 22 -40 -4 c-30 -4 -26 -1 16 8 50 12 143 65 161 91 18 27 -44 31 -242
15z m-350 -188 c-522 -197 -809 -386 -1210 -797 -206 -211 -323 -357 -443
-548 -26 -42 -54 -76 -63 -76 -13 0 -13 3 0 28 41 80 201 301 290 401 452 510
853 801 1351 979 198 70 198 70 215 71 8 0 -55 -26 -140 -58z m-1695 -1512
c15 -15 -17 -10 -45 7 l-25 15 30 -6 c17 -4 34 -11 40 -16z m-38 -21 c-3 -7
-17 -44 -32 -83 -29 -73 -44 -99 -53 -90 -7 7 71 185 82 185 4 0 6 -6 3 -12z"/>
<path d="M1865 1156 c-138 -26 -220 -77 -213 -132 2 -23 13 -34 53 -54 42 -21
67 -25 170 -28 260 -8 416 70 223 112 -45 10 -32 -1 22 -19 28 -9 50 -20 50
-25 0 -26 -199 -55 -317 -47 -79 6 -162 32 -177 55 -11 18 4 38 43 60 131 74
428 72 557 -3 99 -58 75 -154 -49 -194 -135 -43 -179 -46 -897 -48 -719 -3
-780 -4 -780 -14 0 -11 491 -23 985 -23 402 -1 485 2 573 16 184 31 262 84
262 176 0 74 -46 117 -163 153 -82 25 -250 33 -342 15z"/>
</g>
</svg>
